# xmcd
#
# Track frame offsets: 
#        150
#        20720
#        36221
#        56786
#
# Disc length: 963 seconds
#
# Revision: 1
# Processed by: cddbd v1.5.2PL0 Copyright (c) Steve Scherf et al.
# Submitted via: ExactAudioCopy v1.0b3
#
DISCID=3203c104
DTITLE=南春香（佐藤利奈）・南夏奈（井上麻里奈）・南千秋（茅原実里） - その声が聴きたくて
DYEAR=2008
DGENRE=Anime
TTITLE0=その声が聴きたくて
TTITLE1=ココロ晴れマーク
TTITLE2=その声が聴きたくて (Off Vocal Version)
TTITLE3=ココロ晴れマーク (Off Vocal Version)
EXTD=
EXTT0=「みなみけ おかわり」 エンディングテーマ
EXTT1=「みなみけのみなきけ」 2ndエンディングテーマ
EXTT2=
EXTT3=
PLAYORDER=
